# xmcd
#
# Track frame offsets:
#	150
#	43984
#	92926
#	162776
#	204050
#	222489
#	249198
#	269252
#	305577
#
# Disc length: 4533 seconds
#
# Revision: 0
# Processed by: cddbd v1.5.2PL0 Copyright (c) Steve Scherf et al.
# Submitted via: audiograbber 1.83.01
#
DISCID=7a11b309
DTITLE=Grateful Dead - 94-03-06 Desert Sky Pavilion, Phoenix AZ
DYEAR=1900
DGENRE=
TTITLE0=Playing In The Band
TTITLE1=Eyes Of The World
TTITLE2=Drums
TTITLE3=Space
TTITLE4=The Wheel
TTITLE5=The Last Time
TTITLE6=Attics Of My Life
TTITLE7=Good Lovin'
TTITLE8=Liberty
EXTD=
EXTT0=
EXTT1=
EXTT2=
EXTT3=
EXTT4=
EXTT5=
EXTT6=
EXTT7=
EXTT8=
PLAYORDER=
